<svg id="e0ibvu1IrGs1" xmlns="http://www.w3.org/2000/svg" xmlns:xlink="http://www.w3.org/1999/xlink" viewBox="0 0 2005 650" shape-rendering="geometricPrecision" text-rendering="geometricPrecision"><g transform="matrix(1 0 0 0.996265-2.865506-50.417533)"><rect width="2005" height="770.002276" rx="0" ry="0" transform="translate(0-2.002276)" fill="#48e1b9" stroke-width="0"/></g><rect width="637.806826" height="358.089968" rx="0" ry="0" transform="matrix(.846271 0 0 0.781568-2.865506-50.983743)" fill="#a097f1" stroke-width="0"/><rect width="637.806826" height="358.089968" rx="0" ry="0" transform="matrix(.846271 0 0 0.781568 1465.24258-52.412331)" fill="#e0edd2" stroke-width="0"/><rect width="637.806826" height="358.089968" rx="0" ry="0" transform="matrix(.846271 0 0 0.781568-2.865506 463.282222)" fill="#99f897" stroke-width="0"/><rect width="637.806826" height="358.089968" rx="0" ry="0" transform="matrix(.846271 0 0 0.781568 1465.24258 463.282222)" fill="#edd2ed" stroke-width="0"/><g transform="translate(69.221304 1.001154)"><g transform="translate(-72.08681-.000003)"><line x1="1.065744" y1="-188.63668" x2="-1.065744" y2="188.63668" transform="translate(585.654479 394.657439)" fill="none" stroke="#3f5787" stroke-width="3"/><line x1="0" y1="-199.294119" x2="0" y2="199.294119" transform="translate(640.00742 384)" fill="none" stroke="#3f5787" stroke-width="3"/><line x1="-100.25" y1="0" x2="100.25" y2="0" transform="translate(640.00742 206.020759)" fill="none" stroke="#3f5787" stroke-width="3"/><line x1="-74.602077" y1="-151.7071" x2="74.602077" y2="151.7071" transform="matrix(1.096936 0 0 0.966176 721.841124 436.71836)" fill="none" stroke="#3f5787" stroke-width="3"/><line x1="-83.128029" y1="-188.63668" x2="83.128029" y2="188.63668" transform="matrix(1.25641 0 0 1 768.350628 394.657439)" fill="none" stroke="#3f5787" stroke-width="3"/><line x1="-100.25" y1="0" x2="100.25" y2="0" transform="translate(803.674828 583.294119)" fill="none" stroke="#3f5787" stroke-width="3"/></g><g transform="matrix(-1 0 0 1 2023.158837-.000028)"><line x1="1.065744" y1="-188.63668" x2="-1.065744" y2="188.63668" transform="matrix(-1 0 0-1 1008.624679 394.657439)" fill="none" stroke="#3f5787" stroke-width="3"/><line x1="0" y1="-199.294119" x2="0" y2="199.294119" transform="matrix(-1 0 0-1 1062.97762 384)" fill="none" stroke="#3f5787" stroke-width="3"/><line x1="-100.25" y1="0" x2="100.25" y2="0" transform="matrix(-1 0 0-1 1062.97762 206.020759)" fill="none" stroke="#3f5787" stroke-width="3"/><line x1="-74.602077" y1="-151.7071" x2="74.602077" y2="151.7071" transform="matrix(-1.096936 0 0-.966176 1144.811324 436.71836)" fill="none" stroke="#3f5787" stroke-width="3"/><line x1="-83.128029" y1="-188.63668" x2="83.128029" y2="188.63668" transform="matrix(-1.25641 0 0-1 1191.320822 394.657439)" fill="none" stroke="#3f5787" stroke-width="3"/><line x1="-100.25" y1="0" x2="100.25" y2="0" transform="matrix(-1 0 0-1 1226.645028 583.294119)" fill="none" stroke="#3f5787" stroke-width="3"/></g></g><g transform="matrix(1.119116 0 0 1.107975-121.216184-27.852963)"><line x1="36.043405" y1="49.915644" x2="-36.043405" y2="-49.915644" transform="matrix(.854747 0 0 0.924531 1370.271469 255.936376)" fill="none" stroke="#3f5787" stroke-width="3"/><g transform="matrix(-1 0 0-1 2854.922624 795.591529)"><line x1="36.043405" y1="49.915644" x2="-36.043405" y2="-49.915644" transform="matrix(.854747 0 0 0.924531 1706.385423 293.014342)" fill="none" stroke="#3f5787" stroke-width="3"/><line x1="36.043405" y1="49.915644" x2="-36.043405" y2="-49.915644" transform="matrix(.854747 0 0 0.924531 1679.602256 314.94735)" fill="none" stroke="#3f5787" stroke-width="3"/><line x1="77.547933" y1="0" x2="-77.547933" y2="0" transform="translate(1598.029498 243.098722)" fill="none" stroke="#3f5787" stroke-width="3"/><line x1="42.596752" y1="-67.391223" x2="-42.596752" y2="67.391222" transform="matrix(.71044 0 0 0.712735 1489.553954 294.897865)" fill="none" stroke="#3f5787" stroke-width="3"/><line x1="-100.25" y1="0" x2="100.25" y2="0" transform="matrix(.525387 0 0-1 1592.794085 268.79879)" fill="none" stroke="#3f5787" stroke-width="3"/><line x1="-23.801418" y1="34.332249" x2="23.801418" y2="-34.332249" transform="matrix(1.12865 0 0 1.177042 1516.417424 311.908225)" fill="none" stroke="#3f5787" stroke-width="3"/><line x1="-13.391584" y1="8.777187" x2="13.391584" y2="-8.777186" transform="translate(1723.801832 352.318724)" fill="none" stroke="#3f5787" stroke-width="3"/><line x1="0" y1="-20.188163" x2="0" y2="20.188164" transform="translate(1459.291518 363.729702)" fill="none" stroke="#3f5787" stroke-width="3"/></g><line x1="36.043405" y1="49.915644" x2="-36.043405" y2="-49.915644" transform="matrix(.854747 0 0 0.924531 1343.488302 277.869384)" fill="none" stroke="#3f5787" stroke-width="3"/><line x1="77.547933" y1="0" x2="-77.547933" y2="0" transform="translate(1261.915544 206.020756)" fill="none" stroke="#3f5787" stroke-width="3"/><line x1="42.596752" y1="-67.391223" x2="-42.596752" y2="67.391222" transform="matrix(.71044 0 0 0.712735 1153.44 257.819899)" fill="none" stroke="#3f5787" stroke-width="3"/><line x1="-156.18809" y1="-47.957578" x2="156.18809" y2="47.957578" transform="matrix(.773044 0 0 1.013716 1243.91783 395.455264)" fill="none" stroke="#3f5787" stroke-width="3"/><line x1="-100.25" y1="0" x2="100.25" y2="0" transform="matrix(.525387 0 0-1 1256.680131 231.720824)" fill="none" stroke="#3f5787" stroke-width="3"/><line x1="-23.801418" y1="34.332249" x2="23.801418" y2="-34.332249" transform="matrix(1.12865 0 0 1.177042 1180.30347 274.830259)" fill="none" stroke="#3f5787" stroke-width="3"/><line x1="-114.926849" y1="-46.428132" x2="114.92685" y2="46.428132" transform="matrix(1.077567 0 0 1.124413 1271.789781 363.975161)" fill="none" stroke="#3f5787" stroke-width="3"/><line x1="-13.391584" y1="8.777187" x2="13.391584" y2="-8.777186" transform="translate(1387.687878 315.240758)" fill="none" stroke="#3f5787" stroke-width="3"/><line x1="0" y1="-20.188163" x2="0" y2="20.188164" transform="translate(1123.177564 326.651736)" fill="none" stroke="#3f5787" stroke-width="3"/></g></svg>